<svg width="63" height="45" viewBox="0 0 63 45" fill="none" xmlns="http://www.w3.org/2000/svg">
<path d="M54.2826 42.1304H3.80435C1 42.1304 1 40.2609 1 39.3261V10.3478C1 8.85218 2.55797 8.47826 3.80435 8.47826H31.8478C33.0942 8.47826 35.587 7.73044 35.587 4.73913C35.587 1.74783 38.0797 1 39.3261 1H54.2826C57.2739 1 58.0217 2.24638 58.0217 2.86957V38.3913C58.0217 41.3826 55.529 42.1304 54.2826 42.1304Z" fill="#FFD0B5" stroke="black" stroke-width="0.5"/>
<path d="M58.0831 44H8.43233C5.67395 44 5.67395 42.3004 5.67395 41.4506V15.1067C5.67395 13.747 7.20638 13.4071 8.43233 13.4071H36.0161C37.242 13.4071 39.6939 12.7273 39.6939 10.0079C39.6939 7.28855 42.1458 6.6087 43.3717 6.6087H58.0831C61.0253 6.6087 61.7609 7.74177 61.7609 8.30831V40.6008C61.7609 43.3202 59.309 44 58.0831 44Z" fill="#F9703E" stroke="black" stroke-width="0.5"/>
</svg>
