<svg width="30" height="22" viewBox="0 0 30 22" fill="none" xmlns="http://www.w3.org/2000/svg">
<path d="M25.5538 19.9538H2.29231C1 19.9538 1 19.0923 1 18.6615V5.30769C1 4.61846 1.71795 4.44615 2.29231 4.44615H15.2154C15.7897 4.44615 16.9385 4.10154 16.9385 2.72308C16.9385 1.34462 18.0872 1 18.6615 1H25.5538C26.9323 1 27.2769 1.57436 27.2769 1.86154V18.2308C27.2769 19.6092 26.1282 19.9538 25.5538 19.9538Z" fill="#2DD4BF" stroke="black" stroke-width="0.5"/>
<path d="M27.3052 20.8154H4.42497C3.15384 20.8154 3.15384 20.0322 3.15384 19.6406V7.5007C3.15384 6.87413 3.86002 6.71748 4.42497 6.71748H17.1362C17.7011 6.71748 18.831 6.4042 18.831 5.15105C18.831 3.8979 19.9609 3.58462 20.5259 3.58462H27.3052C28.661 3.58462 29 4.10676 29 4.36783V19.249C29 20.5021 27.8701 20.8154 27.3052 20.8154Z" fill="#99F6E4" stroke="black" stroke-width="0.5"/>
</svg>
